inDegrees=no
num_controls=7
num_derivatives=13
num_iterations=44
num_multipliers=7
num_parameters=0
num_slacks=7
num_states=26
objective=0.431937
objective_accelerations=0.055179
objective_balance=0.007015
objective_effort=0.033658
objective_height=0.334972
objective_ligament=0.001113
solver_duration=685.661255
status=Solve_Succeeded
success=true
DataType=double
version=3
OpenSimVersion=4.5
endheader
time	/jointset/ground_pelvis/pelvis_tilt/value	/jointset/ground_pelvis/pelvis_tx/value	/jointset/ground_pelvis/pelvis_ty/value	/jointset/hip_l/hip_flexion_l/value	/jointset/hip_l/hip_adduction_l/value	/jointset/hip_l/hip_rotation_l/value	/jointset/back/lumbar_extension/value	/jointset/patellofemoral_l/patellar_flexion_l/value	/jointset/knee_l/knee_flexion_l/value	/jointset/knee_l/knee_adduction_l/value	/jointset/knee_l/knee_rotation_l/value	/jointset/ankle_l/ankle_angle_l/value	/jointset/subtalar_l/subtalar_angle_l/value	/jointset/ground_pelvis/pelvis_tilt/speed	/jointset/ground_pelvis/pelvis_tx/speed	/jointset/ground_pelvis/pelvis_ty/speed	/jointset/hip_l/hip_flexion_l/speed	/jointset/hip_l/hip_adduction_l/speed	/jointset/hip_l/hip_rotation_l/speed	/jointset/back/lumbar_extension/speed	/jointset/patellofemoral_l/patellar_flexion_l/speed	/jointset/knee_l/knee_flexion_l/speed	/jointset/knee_l/knee_adduction_l/speed	/jointset/knee_l/knee_rotation_l/speed	/jointset/ankle_l/ankle_angle_l/speed	/jointset/subtalar_l/subtalar_angle_l/speed	/forceset/tau_hip_flexion_l	/forceset/tau_hip_adduction_l	/forceset/tau_hip_rotation_l	/forceset/tau_knee_flexion_l	/forceset/tau_ankle_angle_l	/forceset/tau_subtalar_angle_l	/forceset/tau_lumbar_extension	lambda_cid13_p0	lambda_cid13_p1	lambda_cid13_p2	lambda_cid13_p3	lambda_cid13_p4	lambda_cid13_p5	lambda_cid14_p0	/jointset/ground_pelvis/pelvis_tilt/accel	/jointset/ground_pelvis/pelvis_tx/accel	/jointset/ground_pelvis/pelvis_ty/accel	/jointset/hip_l/hip_flexion_l/accel	/jointset/hip_l/hip_adduction_l/accel	/jointset/hip_l/hip_rotation_l/accel	/jointset/back/lumbar_extension/accel	/jointset/patellofemoral_l/patellar_flexion_l/accel	/jointset/knee_l/knee_flexion_l/accel	/jointset/knee_l/knee_adduction_l/accel	/jointset/knee_l/knee_rotation_l/accel	/jointset/ankle_l/ankle_angle_l/accel	/jointset/subtalar_l/subtalar_angle_l/accel	gamma_cid13_p0	gamma_cid13_p1	gamma_cid13_p2	gamma_cid13_p3	gamma_cid13_p4	gamma_cid13_p5	gamma_cid14_p0
1	-0.4726074108348085	-0.06338928858410607	0.5647121995621016	1.878173156264887	-0.2646849011267397	0.2477088913944612	-0.4363064537540454	1.48869618555195	1.488696185551937	-0.1730324181593415	0.1745238374000305	0.3027462937695749	0.05631840951916595	-0.01092011328764871	-0.00189077334919837	-0.002567335307546061	0.01659298900763927	6.919057588491661e-05	0.001382920907664928	0.0006640546859460659	0.001085676048363735	0.001085676048363548	-0.001099054659929884	0.0001581738217926214	-0.004768770140090386	-0.001353849290099381	-0.3478544455642047	0.03711918045441067	-0.0090377941718642	-0.3835353009737378	0.08067787697619726	-0.01882037865539303	0.3065960056267912	-22.75297871025943	17.30640357262561	-9.042736960942232	13.75989057337776	-740.8631076295479	-23.02336963819401	-0.03811422042778842	1.013891135640102	0.008851227197899164	2.030781817926262	-6.296378942646298	-0.7443011684787623	-2.248558740401696	-0.03858220937437082	-5.964463702632637	-5.964463702632681	-0.137913144639013	0.02662282523495003	-0.983805219310935	-1.216284500903667	3.415722865866166e-09	-5.952364421886838e-09	5.799525678124674e-09	-8.571536444536071e-09	2.104308956144041e-09	-9.374486955647867e-09	-9.322641231713666e-10
1.01	-0.4726662933993318	-0.06340783473910967	0.5647878995302842	1.878025060336441	-0.2647205404465648	0.2476080919980881	-0.4363013658718073	1.488409233278898	1.488409233278877	-0.1730468715782877	0.1745257368696602	0.3026495573176186	0.05624532878363446	-0.0008513078742603352	-0.001823646626711469	0.01769808941691002	-0.0461874295138969	-0.0071882322396581	-0.02153178788726439	0.0003420500827713087	-0.05846195036805166	-0.05846195036805137	-0.001789130143671406	0.0002147284363986395	-0.01459424159085172	-0.01325340778316684	-0.3477779011249132	0.03720590998296806	-0.009067509490748084	-0.3831010596943175	0.08026116869976611	-0.01875265952497193	0.3064738078970837	-22.86325431692246	17.28515529974619	-9.02661758033317	13.92134244546598	-740.4884544544543	-23.00737164084344	-0.03813354478811871	1.004139564284704	0.004865421805469614	2.023034728732372	-6.265161205975838	-0.7151502919609281	-2.311283165863924	-0.03073033919705264	-5.947782732043014	-5.947782732042961	-0.03418480427861111	-0.005892770964724996	-0.9842740722171128	-1.17546580033052	2.109061824527217e-09	-3.803047435964434e-09	6.82126782081739e-08	1.762392297735514e-09	-1.058128534214664e-08	5.083222780262053e-08	-1.157019965133694e-08
1.02	-0.4726243350457081	-0.06342586522148257	0.5650659761315177	1.877249902642947	-0.2648284914853219	0.2472784742704167	-0.4362998421862018	1.487527230617502	1.487527230617484	-0.1730681517628645	0.1745279889753494	0.3024540949583018	0.0560535176078077	0.009248070343004913	-0.00178763882305994	0.03790799130250206	-0.1088193639981694	-0.01439315320996221	-0.04438074535521459	-4.878465669826436e-05	-0.1179244016203432	-0.117924401620342	-0.002464407788884836	0.0002287010294828085	-0.02451395161194805	-0.02509993734912524	-0.3477013566856896	0.03729263951154035	-0.009097224809578976	-0.3826668184148874	0.07984446042335509	-0.01868494039452482	0.3063516101673033	-22.97882635798897	17.26418039405628	-9.009794862493044	14.12254609084994	-740.203994801352	-22.93440517420961	-0.03814636102523414	1.020005696415495	0.002627443430808166	2.019677250153451	-6.266682135193551	-0.733800799430941	-2.235408475005861	-0.05234823663346282	-5.947428669807883	-5.947428669807841	-0.1349535769333514	0.01810642093050526	-1.002652933377959	-1.205678715481808	6.175562336846953e-10	-1.250588982942546e-09	1.297557326228637e-07	1.20868861723932e-08	-2.271815020620336e-08	1.121538609976274e-07	-2.22580392350292e-08
1.03	-0.4724811739745712	-0.06344358832552273	0.5655458336569608	1.875849147391697	-0.2650081094204746	0.2467208529568692	-0.4363022790178259	1.486051130565446	1.486051130565449	-0.1730961132916486	0.1745300839931985	0.302159032250806	0.05574371563048382	0.01939449430304833	-0.001751981538036631	0.05805028956565515	-0.1713089145949087	-0.02150973313110764	-0.06712009922376382	-0.0004205637444558726	-0.1772715791199986	-0.1772715791199973	-0.003122502034190937	0.0001754505872688684	-0.03450750977884188	-0.03683077319771683	-0.3476329238270517	0.03740135896565372	-0.009195705999990238	-0.3820609980624755	0.0796336066070787	-0.01853909572453893	0.3063293425407102	-23.0095428875097	17.18181521757074	-8.968789364761356	14.11330638895216	-739.826503412272	-22.91330229138791	-0.0381828648449748	1.013515224522505	0.004789482895550869	2.009515437902011	-6.236674747251548	-0.6975101947586256	-2.289709692891893	-0.02689005681264492	-5.924751185325213	-5.92475118532529	-0.03044232151870637	-0.01931410311044219	-0.9990397555367416	-1.152356839310117	-8.758355260303121e-10	1.305983158519135e-09	1.912899084853559e-07	2.241128377289156e-08	-3.484941579031891e-08	1.734868709113764e-07	-3.294638804377785e-08
1.04	-0.4722362377680938	-0.0634608039343416	0.5662267160297375	1.873824179989403	-0.2652582778761013	0.2459365359346297	-0.4363078931026198	1.483982280959337	1.483982280959365	-0.1731304967575102	0.1745311918414272	0.3017637674622017	0.05531749113072142	0.02960309741205827	-0.001686139778805573	0.07811296076909365	-0.2336617942051382	-0.02850325730435261	-0.08971988709681657	-0.00068423531081308	-0.2364743124308832	-0.2364743124308823	-0.003748795207072304	3.126709253646127e-05	-0.04455436783340112	-0.04838444183680185	-0.3475644909684422	0.03751007841978762	-0.009294187190337934	-0.3814551777100566	0.07942275279081662	-0.01839325105452107	0.306307074914086	-23.04574759331484	17.09984802727994	-8.927204390792591	14.144535154315	-739.5401448680456	-22.83618512161339	-0.03821278748230862	1.032441526208816	0.008664338272353186	2.003751838210531	-6.239347937891578	-0.7091896498508448	-2.207495275906594	-0.03072673235302832	-5.918539832053741	-5.918539832053776	-0.1285933624483699	-8.01895731869901e-05	-1.013312910911053	-1.17024527358049	-1.249598393953329e-09	2.356836842075026e-09	2.508790096646471e-07	2.845939686436645e-08	-4.539758056086008e-08	2.317217819543322e-07	-4.370055705979e-08
1.05	-0.4718888168986444	-0.06347714185720979	0.5671077010793146	1.871176581534443	-0.2655776473780638	0.2449271676469215	-0.4363154682346039	1.481322456521638	1.481322456521682	-0.1731710246281207	0.1745303735615213	0.3012678027699597	0.05477680788930248	0.03989988221577512	-0.001569667291628051	0.09805831046458963	-0.2958138297252895	-0.03533807714139389	-0.1121124061121506	-0.0007988895278412246	-0.2954336583830038	-0.295433658383006	-0.004348585468147885	-0.0002124611126071453	-0.0546435312438816	-0.05970319192169182	-0.3473027092872451	0.03764578848052257	-0.009455430747800656	-0.3804819298229132	0.07926321818905106	-0.01815402509826919	0.3061813597672222	-23.02758011365119	16.95248858515838	-8.857698781369804	14.03599454148898	-738.8252486877112	-22.79872291784988	-0.03826670220377406	1.031120655110465	0.01491226397833929	1.986054447625734	-6.196519876731671	-0.6657893277943052	-2.248964571385125	0.002950467741472686	-5.876083467801106	-5.876083467801605	-0.02446655512144971	-0.03922401062597061	-1.00745321935991	-1.1053761028755	-1.588372859007851e-09	3.360636823821371e-09	3.104073272600883e-07	3.43738760649344e-08	-5.589627343097706e-08	2.898598774075756e-07	-5.445678295727914e-08
1.06	-0.4714378634416272	-0.06349196034319908	0.568187365208329	1.867908785020751	-0.2659643973138301	0.2436951072976634	-0.4363232328617598	1.478074748326215	1.47807474832627	-0.1732173093407722	0.174526577024699	0.3006707994109635	0.05412439990164803	0.05030961492580038	-0.001382252403026765	0.1178487766563938	-0.3577014059516281	-0.04197934406498384	-0.1342582994090235	-0.0007221343800729242	-0.3540510639755151	-0.3540510639755202	-0.004900163616592899	-0.0005643843033852527	-0.0647621011840961	-0.07072939108387458	-0.3470409276060428	0.03778149854127324	-0.009616674305178725	-0.3795086819357665	0.07910368358729183	-0.01791479914199447	0.3060556446203636	-23.01518329344064	16.8057362445122	-8.787829392718201	13.96783855803488	-738.20281142359	-22.70721849722713	-0.03831385080204803	1.05503110747052	0.02285281855711929	1.97277513747217	-6.186456079129036	-0.67047906716065	-2.158170132214456	0.007555140607331708	-5.850151760131829	-5.850151760131844	-0.118950939922248	-0.0217191866999265	-1.019194216857847	-1.111735089039145	-3.723855127070933e-09	3.738368187514907e-10	3.624760431413935e-07	4.163823300943453e-08	-6.609987993633541e-08	3.366711383591052e-07	-6.408075003159034e-08
1.07	-0.4708824112969919	-0.06350447551780165	0.5694640617381327	1.864023751861394	-0.2664165049468773	0.2422430026329949	-0.4363286795420462	1.47424273984617	1.474242739846232	-0.1732689202266601	0.1745187068386655	0.2999724738281644	0.05336333265368767	0.06078256346130485	-0.001101605750246385	0.1374550599925807	-0.4192294027617796	-0.04840126020652757	-0.1561135003525466	-0.0002750087394043351	-0.4122775622398986	-0.4122775622398956	-0.005409270542886043	-0.001027654909031539	-0.07490646441982038	-0.08142132622620421	-0.3468238564641624	0.03798125568714029	-0.009840916099390262	-0.3782119258460662	0.07894572051103728	-0.01759773229634092	0.3060527066931505	-22.98019165607593	16.60876167572539	-8.695721090803378	13.76203962384636	-737.4013386693132	-22.63729848554534	-0.03838580057959262	1.043692639747841	0.03355700239334745	1.94921913326249	-6.12459645944699	-0.6219704592232066	-2.191878652393957	0.07712022945567076	-5.797923526266778	-5.797923526265623	-0.01501174029891724	-0.06143002088814305	-1.012563665845008	-1.038562789496823	-5.954906959123844e-09	-2.825229143063959e-09	4.141479716974787e-07	4.897439196159063e-08	-7.62877903584619e-08	3.82879908113735e-07	-7.364449057275378e-08
1.08	-0.470222176484367	-0.0635136069431259	0.5709357539416131	1.859525713738447	-0.2669316162556536	0.2405738092435004	-0.4363268891758947	1.469830661450146	1.469830661450202	-0.1733252464160755	0.1745056441418914	0.2991726033552253	0.05249721804177044	0.07126614852311734	-0.0007055025473656876	0.1568479113916147	-0.4803023986714847	-0.05458007921095422	-0.1776760443749842	0.000725275047639249	-0.4700650471712849	-0.4700650471712738	-0.00584322432182011	-0.001602886450319039	-0.08507107921215594	-0.0917388638752141	-0.3466067853222324	0.03818101283301358	-0.01006515789351506	-0.3769151697563666	0.07878775743477846	-0.01728066545068067	0.3060497687659922	-22.95135666086133	16.41266509403546	-8.603524413862729	13.5962437948927	-736.6944289336968	-22.51603419888049	-0.03845072093190328	1.057158412732149	0.04594412857719857	1.930088750041569	-6.095455899039756	-0.6218596397373354	-2.099638747997505	0.1181867698832099	-5.762349093532331	-5.762349093532324	-0.1039203104504284	-0.04411137382795231	-1.023244528180097	-1.036855590375329	-8.757869040126089e-09	-8.823724335630009e-09	4.604982828740826e-07	5.548111016292185e-08	-8.574750452768155e-08	4.193451224977802e-07	-8.232193724056257e-08
